<?xml version="1.0" encoding="utf-8"?>
<!-- Generator: Adobe Illustrator 27.7.0, SVG Export Plug-In . SVG Version: 6.00 Build 0)  -->
<svg version="1.1" id="Camada_1" xmlns="http://www.w3.org/2000/svg" xmlns:xlink="http://www.w3.org/1999/xlink" x="0px" y="0px"
	 viewBox="0 0 91.9 91.9" style="enable-background:new 0 0 91.9 91.9;" xml:space="preserve">
<path d="M78.5,13.5c-18-18-47.1-18-65,0s-18,47.1,0,65s47.1,18,65,0S96.4,31.5,78.5,13.5z M36.5,36.6c5.2-5.2,13.7-5.2,18.9,0
	s5.2,13.7,0,18.9s-13.7,5.2-18.9,0S31.3,41.8,36.5,36.6z M73.6,73.7c-15.3,15.3-40,15.3-55.3,0l13.8-13.8c7.6,7.6,20,7.6,27.6,0
	s7.6-20,0-27.6l13.9-13.9C88.9,33.7,88.9,58.4,73.6,73.7z"/>
</svg>
