<?xml version="1.0" encoding="utf-8"?>
<!-- Generator: Adobe Illustrator 27.7.0, SVG Export Plug-In . SVG Version: 6.00 Build 0)  -->
<svg version="1.1" id="Camada_1" xmlns="http://www.w3.org/2000/svg" xmlns:xlink="http://www.w3.org/1999/xlink" x="0px" y="0px"
	 viewBox="0 0 49.8 50" style="enable-background:new 0 0 49.8 50;" xml:space="preserve">
<path d="M24.9,15.3c4.5,0,8.4,3.1,9.5,7.5h15.4C48.6,9,36.4-1.1,22.7,0.1C10.7,1.2,1.1,10.7,0,22.8h15.4
	C16.5,18.4,20.4,15.3,24.9,15.3z"/>
<path d="M24.9,34.7c-4.5,0-8.4-3.1-9.5-7.5H0C1.2,41,13.4,51.1,27.1,49.9c12-1.1,21.6-10.6,22.7-22.7H34.4
	C33.3,31.6,29.4,34.7,24.9,34.7z"/>
<path d="M19.7,25c0,2.9,2.3,5.2,5.2,5.2s5.2-2.3,5.2-5.2s-2.3-5.2-5.2-5.2S19.7,22.1,19.7,25z"/>
</svg>
