<?xml version="1.0" encoding="UTF-8"?>
<svg id="Camada_1" data-name="Camada 1" xmlns="http://www.w3.org/2000/svg" xmlns:xlink="http://www.w3.org/1999/xlink" viewBox="0 0 1920 1080">
  <defs>
    <style>
      .cls-1 {
        fill: none;
      }

      .cls-2 {
        fill: url(#Novo_padrão);
      }

      .cls-3 {
        fill-rule: evenodd;
      }
    </style>
    <pattern id="Novo_padrão" data-name="Novo padrão" x="0" y="0" width="80" height="120" patternUnits="userSpaceOnUse" viewBox="0 0 80 120">
      <g>
        <rect class="cls-1" width="80" height="120"/>
        <path class="cls-3" d="m80.25,131c5.7,0,10.35-4.4,10.75-10h11c-.4,11.65-10,21-21.75,21s-21.35-9.35-21.75-21h11c.4,5.6,5.05,10,10.75,10Zm24.75-11c0-13.8-11.2-25-25-25s-25,11.2-25,25,11.2,25,25,25,25-11.2,25-25Zm-18,0c0,3.85-3.15,7-7,7s-7-3.15-7-7,3.15-7,7-7,7,3.15,7,7Z"/>
        <path class="cls-3" d="m.25,131c5.7,0,10.35-4.4,10.75-10h11c-.4,11.65-10,21-21.75,21s-21.35-9.35-21.75-21h11c.4,5.6,5.05,10,10.75,10Zm24.75-11C25,106.2,13.8,95,0,95s-25,11.2-25,25S-13.8,145,0,145s25-11.2,25-25Zm-18,0C7,123.85,3.85,127,0,127s-7-3.15-7-7S-3.85,113,0,113s7,3.15,7,7Z"/>
        <path class="cls-3" d="m40.25,71c5.7,0,10.35-4.4,10.75-10h11c-.4,11.65-10,21-21.75,21s-21.35-9.35-21.75-21h11c.4,5.6,5.05,10,10.75,10Zm24.75-11c0-13.8-11.2-25-25-25s-25,11.2-25,25,11.2,25,25,25,25-11.2,25-25Zm-18,0c0,3.85-3.15,7-7,7s-7-3.15-7-7,3.15-7,7-7,7,3.15,7,7Z"/>
        <path class="cls-3" d="m80.25,11c5.7,0,10.35-4.4,10.75-10h11c-.4,11.65-10,21-21.75,21S58.9,12.65,58.5,1h11c.4,5.6,5.05,10,10.75,10ZM105,0c0-13.8-11.2-25-25-25S55-13.8,55,0s11.2,25,25,25S105,13.8,105,0ZM87,0c0,3.85-3.15,7-7,7S73,3.85,73,0s3.15-7,7-7S87-3.85,87,0Z"/>
        <path class="cls-3" d="m.25,11c5.7,0,10.35-4.4,10.75-10h11c-.4,11.65-10,21-21.75,21S-21.1,12.65-21.5,1h11c.4,5.6,5.05,10,10.75,10ZM25,0C25-13.8,13.8-25,0-25S-25-13.8-25,0-13.8,25,0,25,25,13.8,25,0ZM7,0C7,3.85,3.85,7,0,7S-7,3.85-7,0-3.85-7,0-7,7-3.85,7,0Z"/>
      </g>
    </pattern>
  </defs>
  <rect class="cls-2" width="1920" height="1080"/>
</svg>