<?xml version="1.0" encoding="utf-8"?>
<!-- Generator: Adobe Illustrator 27.7.0, SVG Export Plug-In . SVG Version: 6.00 Build 0)  -->
<svg version="1.1" id="Camada_1" xmlns="http://www.w3.org/2000/svg" xmlns:xlink="http://www.w3.org/1999/xlink" x="0px" y="0px"
	 viewBox="0 0 571.4 1183.8" style="enable-background:new 0 0 571.4 1183.8;" xml:space="preserve">
<g>
	<g>
		<path d="M305.6,353.3c59.7,11.8,117.9-22.8,137.5-78.6l-13.2-2.6c0,0,0,0,0,0L361,258.5c1.6-2.1,3-4.4,4.1-6.9l67.2,13.2
			c0,0,0,0,0,0l13.1,2.6c0.9-3.1,1.6-6.2,2.2-9.4c0.6-3.2,1.1-6.4,1.5-9.5l-13.1-2.6l-67.2-13.2c-0.1-2.7-0.5-5.3-1.2-7.9l44.2,8.7
			c3-36.5-3.1-70.2-25.9-90.2c6.9,4.3,13.3,9.4,19.1,15.2c21.4,21.4,32.6,50.3,31.5,79.9l13.2,2.6c1.8-34-10.8-67.4-35.3-91.9
			c-17-17-38.4-28.4-62-33c-59.7-11.8-117.9,22.8-137.5,78.6l13.2,2.6v0l68.9,13.6c-1.6,2.1-3,4.5-4.1,6.9l-79.3-15.6l-1-0.2
			c-0.9,3.1-1.6,6.2-2.2,9.4c-0.6,3.2-1.1,6.4-1.5,9.5l3,0.6l77.2,15.2c0.1,2.7,0.5,5.3,1.2,7.9l-43.3-8.5
			c-3.4,36.5,2.3,69.9,24.8,89.9c-6.8-4.3-13.1-9.3-18.9-15c-21.4-21.4-32.6-50.3-31.5-79.9l-13.2-2.6c-1.8,34,10.8,67.4,35.3,91.9
			C260.6,337.2,282,348.6,305.6,353.3z M302.9,229.5c1.4-7,5.4-13,11.3-17s13-5.4,20-4c5.2,1,9.9,3.5,13.7,7.3
			c6.3,6.3,9,15.3,7.3,24c-2.8,14.4-16.9,23.8-31.3,21c-5.2-1-9.9-3.5-13.7-7.3C303.9,247.2,301.2,238.2,302.9,229.5z"/>
		<circle cx="329" cy="234.7" r="19.2"/>
		<path d="M147.1,405.6l68.8-68.7c3.8-3.8,3.8-9.9,0-13.6c-3.8-3.8-9.9-3.8-13.6,0l-68.8,68.7c-3.8,3.8-3.8,9.9,0,13.6
			C137.2,409.3,143.3,409.3,147.1,405.6z"/>
		<path d="M226.9,347.9l-37,37c-3.8,3.8-3.8,9.9,0,13.6c3.8,3.8,9.9,3.8,13.6,0l37-37c3.8-3.8,3.8-9.9,0-13.6
			C236.7,344.1,230.6,344.1,226.9,347.9z"/>
		<path d="M548.5,0H22.9C10.3,0,0,10.3,0,22.9v901.3c0,12.7,10.3,22.9,22.9,22.9h382.3h32.1c45.9-3.3,85.1-21.4,109.5-54.5
			c16.8-22.8,24.7-50.3,24.5-79.9c0,0,0-0.1,0-0.1V22.9C571.4,10.3,561.1,0,548.5,0z M46.3,101.3c0-13.1,10.7-23.8,23.8-23.8h435.8
			c13.1,0,23.8,10.7,23.8,23.8v260.8c0,0.1,0,0.3,0,0.4c0,0,0,0,0,0c0,1.8,0,3.6,0,5.4c0,0.1,0,0.2,0,0.2c0,1.1-0.1,2.3-0.2,3.4
			c0,0.1,0,0.1,0,0.2c-0.1,1.7-0.3,3.4-0.5,5.1c0,0.2,0,0.4-0.1,0.6c-0.1,0.9-0.2,1.8-0.4,2.7c0,0.2-0.1,0.4-0.1,0.7
			c-0.1,0.5-0.2,1-0.3,1.5c-0.1,0.3-0.1,0.6-0.2,0.9c-0.1,0.7-0.3,1.5-0.4,2.2c-0.1,0.4-0.2,0.7-0.2,1.1c-0.1,0.6-0.3,1.1-0.4,1.6
			c-0.1,0.5-0.3,1-0.4,1.5c-0.1,0.4-0.2,0.8-0.3,1.1c-0.2,0.6-0.3,1.1-0.5,1.7c-0.1,0.4-0.2,0.8-0.4,1.2c-0.2,0.5-0.3,1-0.5,1.5
			c-0.1,0.3-0.2,0.6-0.3,0.9c-0.2,0.7-0.5,1.4-0.8,2c-0.1,0.3-0.2,0.5-0.3,0.8c-0.3,0.7-0.6,1.4-0.9,2.1c-0.1,0.2-0.2,0.3-0.2,0.5
			c-0.3,0.6-0.6,1.2-0.9,1.9c-0.1,0.2-0.2,0.4-0.3,0.6c-0.3,0.7-0.7,1.4-1.1,2.1c-0.1,0.2-0.2,0.4-0.3,0.6c-0.4,0.7-0.8,1.5-1.2,2.2
			c0,0.1-0.1,0.1-0.1,0.2c-0.4,0.7-0.8,1.4-1.2,2.1c-0.1,0.1-0.2,0.3-0.3,0.4c-0.4,0.7-0.9,1.4-1.4,2.1c-0.1,0.1-0.2,0.3-0.3,0.4
			c-0.5,0.7-1,1.4-1.5,2.1c-15.8,21.5-41.2,33.2-71,35.3H422H70.1c-13.1,0-23.8-10.6-23.8-23.8V101.3z M182.3,655
			c0,6.6-5.4,12-12,12h-39.7v39.7c0,6.6-5.4,12-12,12h-6c-6.6,0-12-5.4-12-12V667H60.9c-6.6,0-12-5.4-12-12v-6c0-6.6,5.4-12,12-12
			h39.7v-39.7c0-6.6,5.4-12,12-12h6c6.6,0,12,5.4,12,12V637h39.7c6.6,0,12,5.4,12,12L182.3,655L182.3,655z M367.3,657.2
			c0-19.1,15.5-34.6,34.6-34.6s34.6,15.5,34.6,34.6c0,19.1-15.5,34.6-34.6,34.6C382.8,691.8,367.3,676.3,367.3,657.2z M448.2,892.1
			c-4.9,2.7-9.6,3.3-10.7,1.5L396.2,819c-1-1.9,2.1-5.5,6.9-8.2c4.9-2.7,9.6-3.3,10.7-1.5l41.3,74.6
			C456.2,885.8,453.1,889.5,448.2,892.1z M479.6,877.6c-4.9,2.7-9.6,3.3-10.7,1.5l-41.3-74.6c-1-1.9,2.1-5.5,6.9-8.2
			c4.9-2.7,9.6-3.3,10.7-1.5l41.3,74.6C487.5,871.2,484.4,874.9,479.6,877.6z M511,863c-4.9,2.7-9.6,3.3-10.7,1.5L459,789.9
			c-1-1.9,2.1-5.5,6.9-8.2c4.9-2.7,9.6-3.3,10.7-1.5l41.3,74.6C518.9,856.7,515.8,860.3,511,863z M495.3,649
			c-19.1,0-34.6-15.5-34.6-34.6c0-19.1,15.5-34.6,34.6-34.6c19.1,0,34.6,15.5,34.6,34.6C529.9,633.5,514.4,649,495.3,649z"/>
	</g>
</g>
</svg>
